<?xml version="1.0" encoding="UTF-8"?>
<svg xmlns="http://www.w3.org/2000/svg" xmlns:xlink="http://www.w3.org/1999/xlink" width="64pt" height="64pt" viewBox="0 0 64 64" version="1.1">
<g id="surface17738052">
<path style=" stroke:none;fill-rule:nonzero;fill:rgb(80%,80%,80%);fill-opacity:1;" d="M 2.878906 32 C 2.878906 15.917969 15.917969 2.878906 32 2.878906 C 48.082031 2.878906 61.121094 15.917969 61.121094 32 C 61.121094 48.082031 48.082031 61.121094 32 61.121094 C 15.917969 61.121094 2.878906 48.082031 2.878906 32 Z M 32 59.839844 C 47.375 59.839844 59.839844 47.375 59.839844 32 C 59.839844 16.625 47.375 4.160156 32 4.160156 C 16.625 4.160156 4.160156 16.625 4.160156 32 C 4.160156 47.375 16.625 59.839844 32 59.839844 Z M 32 59.839844 "/>
<path style=" stroke:none;fill-rule:nonzero;fill:rgb(55.294118%,42.352941%,62.352941%);fill-opacity:1;" d="M 20.542969 20.558594 C 20.515625 20.558594 20.488281 20.558594 20.460938 20.554688 C 20.019531 20.507812 19.699219 20.117188 19.746094 19.675781 C 19.800781 19.148438 19.875 18.605469 19.964844 18.070312 C 20.523438 14.808594 21.703125 11.84375 23.28125 9.71875 C 24.980469 7.441406 26.960938 6.367188 28.867188 6.691406 C 31.609375 7.160156 33.492188 10.421875 33.777344 15.203125 C 33.800781 15.644531 33.464844 16.023438 33.027344 16.050781 C 32.589844 16.085938 32.207031 15.742188 32.179688 15.300781 C 31.945312 11.421875 30.507812 8.597656 28.597656 8.269531 C 27.332031 8.050781 25.863281 8.929688 24.566406 10.675781 C 23.132812 12.601562 22.0625 15.324219 21.542969 18.339844 C 21.457031 18.84375 21.390625 19.347656 21.335938 19.839844 C 21.296875 20.253906 20.945312 20.558594 20.542969 20.558594 Z M 20.542969 20.558594 "/>
<path style=" stroke:none;fill-rule:nonzero;fill:rgb(55.294118%,42.352941%,62.352941%);fill-opacity:1;" d="M 25.957031 18.75 C 25.890625 18.75 25.828125 18.742188 25.761719 18.726562 C 25.332031 18.617188 25.074219 18.183594 25.179688 17.753906 C 26.824219 11.222656 30.3125 7.0625 33.675781 7.640625 C 35.609375 7.972656 37.101562 9.800781 37.875 12.789062 C 37.984375 13.214844 37.730469 13.652344 37.300781 13.761719 C 36.875 13.875 36.4375 13.617188 36.328125 13.191406 C 35.726562 10.878906 34.664062 9.433594 33.40625 9.21875 C 31.042969 8.816406 28.09375 12.730469 26.730469 18.148438 C 26.640625 18.507812 26.3125 18.75 25.957031 18.75 Z M 25.957031 18.75 "/>
<path style=" stroke:none;fill-rule:nonzero;fill:rgb(44.705882%,79.215686%,68.627451%);fill-opacity:1;" d="M 52.46875 51.027344 C 52.46875 51.027344 47.386719 16.644531 47.359375 16.398438 C 47.25 16.152344 47.058594 16.039062 46.894531 15.984375 C 46.726562 15.984375 43.128906 15.710938 43.128906 15.710938 C 43.128906 15.710938 40.632812 13.210938 40.328125 12.964844 C 40.21875 12.855469 40.082031 12.800781 39.972656 12.800781 L 39.96875 12.855469 C 39.722656 12.808594 39.457031 12.847656 39.3125 12.882812 C 39.285156 12.882812 38.765625 13.046875 37.914062 13.320312 L 25.371094 17.171875 L 26.101562 16.945312 C 25.710938 17.070312 25.339844 17.183594 24.960938 17.300781 L 20.472656 18.675781 C 18.113281 19.417969 16.4375 19.910156 16.242188 19.996094 C 14.925781 20.40625 14.898438 20.433594 14.734375 21.671875 C 14.597656 22.605469 11.164062 49.160156 11.164062 49.160156 L 37.882812 54.160156 L 37.96875 54.140625 L 37.964844 54.160156 Z M 52.46875 51.027344 "/>
<path style=" stroke:none;fill-rule:nonzero;fill:rgb(36.470588%,73.72549%,61.568627%);fill-opacity:1;" d="M 37.964844 54.160156 L 52.46875 51.027344 C 52.46875 51.027344 47.386719 16.644531 47.359375 16.398438 C 47.246094 16.152344 47.054688 16.039062 46.890625 15.984375 C 46.726562 15.984375 43.128906 15.710938 43.128906 15.710938 C 43.128906 15.710938 40.632812 13.210938 40.328125 12.964844 C 40.21875 12.855469 40.082031 12.800781 39.972656 12.800781 "/>
<path style=" stroke:none;fill-rule:nonzero;fill:rgb(100%,100%,100%);fill-opacity:1;" d="M 32.742188 24.429688 L 31.015625 29.605469 C 31.015625 29.605469 29.445312 28.773438 27.582031 28.773438 C 24.800781 28.773438 24.667969 30.519531 24.667969 30.949219 C 24.667969 33.308594 30.878906 34.21875 30.878906 39.769531 C 30.878906 44.144531 28.097656 46.960938 24.34375 46.960938 C 19.804688 46.960938 17.535156 44.167969 17.535156 44.167969 L 18.75 40.199219 C 18.75 40.199219 21.128906 42.238281 23.125 42.238281 C 24.449219 42.238281 24.988281 41.21875 24.988281 40.46875 C 24.988281 37.382812 19.910156 37.25 19.910156 32.15625 C 19.910156 27.890625 22.992188 23.757812 29.230469 23.757812 C 31.554688 23.730469 32.742188 24.429688 32.742188 24.429688 Z M 32.742188 24.429688 "/>
<path style=" stroke:none;fill-rule:nonzero;fill:rgb(55.294118%,42.352941%,62.352941%);fill-opacity:1;" d="M 24.34375 47.757812 C 19.480469 47.757812 17.015625 44.800781 16.914062 44.675781 C 16.746094 44.46875 16.691406 44.191406 16.769531 43.933594 L 17.984375 39.964844 C 18.066406 39.707031 18.269531 39.507812 18.527344 39.433594 C 18.785156 39.359375 19.066406 39.417969 19.273438 39.59375 C 19.871094 40.105469 21.738281 41.4375 23.128906 41.4375 C 24.179688 41.4375 24.191406 40.507812 24.191406 40.46875 C 24.191406 39.546875 23.550781 38.988281 22.421875 38.074219 C 20.949219 36.882812 19.113281 35.402344 19.113281 32.15625 C 19.113281 27.726562 22.28125 22.960938 29.234375 22.960938 C 31.699219 22.949219 33.007812 23.65625 33.148438 23.738281 C 33.476562 23.929688 33.625 24.324219 33.503906 24.683594 L 31.773438 29.859375 C 31.699219 30.085938 31.53125 30.261719 31.3125 30.351562 C 31.09375 30.4375 30.847656 30.425781 30.640625 30.316406 C 30.628906 30.308594 29.214844 29.574219 27.585938 29.574219 C 25.835938 29.574219 25.46875 30.324219 25.46875 30.949219 C 25.46875 31.472656 26.347656 32.117188 27.277344 32.792969 C 29.136719 34.148438 31.679688 36.003906 31.679688 39.773438 C 31.679688 44.472656 28.664062 47.757812 24.34375 47.757812 Z M 18.4375 43.960938 C 19.125 44.621094 21.078125 46.160156 24.34375 46.160156 C 27.773438 46.160156 30.078125 43.59375 30.078125 39.769531 C 30.078125 36.816406 28.089844 35.367188 26.335938 34.085938 C 25.066406 33.160156 23.867188 32.285156 23.867188 30.949219 C 23.867188 30.449219 24.046875 27.972656 27.582031 27.972656 C 28.765625 27.972656 29.828125 28.273438 30.53125 28.53125 L 31.746094 24.886719 C 31.234375 24.726562 30.40625 24.554688 29.242188 24.558594 C 23.347656 24.558594 20.710938 28.375 20.710938 32.15625 C 20.710938 34.636719 22.03125 35.703125 23.425781 36.828125 C 24.589844 37.765625 25.792969 38.738281 25.792969 40.46875 C 25.792969 41.714844 24.859375 43.039062 23.128906 43.039062 C 21.6875 43.039062 20.144531 42.175781 19.183594 41.523438 Z M 18.4375 43.960938 "/>
<path style=" stroke:none;fill-rule:nonzero;fill:rgb(36.470588%,73.72549%,61.568627%);fill-opacity:1;" d="M 39.972656 12.800781 L 37.964844 54.160156 "/>
<path style=" stroke:none;fill-rule:nonzero;fill:rgb(55.294118%,42.352941%,62.352941%);fill-opacity:1;" d="M 40.621094 16.761719 C 40.605469 16.761719 40.59375 16.761719 40.582031 16.757812 L 38.980469 16.683594 C 38.542969 16.660156 38.199219 16.285156 38.222656 15.84375 C 38.242188 15.402344 38.625 15.066406 39.0625 15.082031 L 40.660156 15.160156 C 41.101562 15.183594 41.441406 15.558594 41.417969 16 C 41.398438 16.425781 41.042969 16.761719 40.621094 16.761719 Z M 40.621094 16.761719 "/>
<path style=" stroke:none;fill-rule:nonzero;fill:rgb(55.294118%,42.352941%,62.352941%);fill-opacity:1;" d="M 40.429688 20.660156 C 40.417969 20.660156 40.40625 20.660156 40.390625 20.660156 L 38.792969 20.582031 C 38.351562 20.5625 38.011719 20.1875 38.03125 19.746094 C 38.054688 19.304688 38.433594 18.960938 38.871094 18.984375 L 40.46875 19.0625 C 40.910156 19.085938 41.25 19.460938 41.230469 19.898438 C 41.207031 20.328125 40.855469 20.660156 40.429688 20.660156 Z M 40.429688 20.660156 "/>
<path style=" stroke:none;fill-rule:nonzero;fill:rgb(55.294118%,42.352941%,62.352941%);fill-opacity:1;" d="M 40.242188 24.5625 C 40.230469 24.5625 40.214844 24.5625 40.203125 24.5625 L 38.605469 24.484375 C 38.164062 24.464844 37.824219 24.089844 37.84375 23.648438 C 37.867188 23.207031 38.238281 22.871094 38.679688 22.886719 L 40.28125 22.964844 C 40.722656 22.984375 41.0625 23.359375 41.039062 23.800781 C 41.019531 24.230469 40.664062 24.5625 40.242188 24.5625 Z M 40.242188 24.5625 "/>
<path style=" stroke:none;fill-rule:nonzero;fill:rgb(55.294118%,42.352941%,62.352941%);fill-opacity:1;" d="M 40.050781 28.464844 C 40.039062 28.464844 40.027344 28.464844 40.011719 28.464844 L 38.414062 28.386719 C 37.972656 28.367188 37.632812 27.992188 37.652344 27.550781 C 37.675781 27.109375 38.058594 26.765625 38.492188 26.789062 L 40.089844 26.867188 C 40.53125 26.886719 40.871094 27.261719 40.851562 27.703125 C 40.832031 28.132812 40.476562 28.464844 40.050781 28.464844 Z M 40.050781 28.464844 "/>
<path style=" stroke:none;fill-rule:nonzero;fill:rgb(55.294118%,42.352941%,62.352941%);fill-opacity:1;" d="M 39.863281 32.367188 C 39.847656 32.367188 39.835938 32.367188 39.824219 32.367188 L 38.226562 32.289062 C 37.785156 32.265625 37.445312 31.890625 37.464844 31.453125 C 37.484375 31.011719 37.863281 30.675781 38.300781 30.691406 L 39.902344 30.769531 C 40.34375 30.789062 40.683594 31.164062 40.660156 31.605469 C 40.640625 32.035156 40.285156 32.367188 39.863281 32.367188 Z M 39.863281 32.367188 "/>
<path style=" stroke:none;fill-rule:nonzero;fill:rgb(55.294118%,42.352941%,62.352941%);fill-opacity:1;" d="M 39.675781 36.269531 C 39.660156 36.269531 39.648438 36.269531 39.636719 36.269531 L 38.035156 36.191406 C 37.59375 36.167969 37.253906 35.792969 37.277344 35.351562 C 37.296875 34.910156 37.671875 34.570312 38.113281 34.59375 L 39.710938 34.667969 C 40.152344 34.691406 40.492188 35.066406 40.472656 35.507812 C 40.453125 35.9375 40.097656 36.269531 39.675781 36.269531 Z M 39.675781 36.269531 "/>
<path style=" stroke:none;fill-rule:nonzero;fill:rgb(55.294118%,42.352941%,62.352941%);fill-opacity:1;" d="M 39.484375 40.171875 C 39.472656 40.171875 39.460938 40.171875 39.445312 40.171875 L 37.847656 40.09375 C 37.40625 40.070312 37.066406 39.695312 37.085938 39.253906 C 37.109375 38.8125 37.480469 38.476562 37.925781 38.496094 L 39.523438 38.570312 C 39.964844 38.59375 40.304688 38.96875 40.285156 39.410156 C 40.261719 39.835938 39.910156 40.171875 39.484375 40.171875 Z M 39.484375 40.171875 "/>
<path style=" stroke:none;fill-rule:nonzero;fill:rgb(55.294118%,42.352941%,62.352941%);fill-opacity:1;" d="M 39.296875 44.074219 C 39.28125 44.074219 39.269531 44.074219 39.257812 44.070312 L 37.660156 43.996094 C 37.21875 43.972656 36.875 43.597656 36.898438 43.15625 C 36.917969 42.714844 37.300781 42.375 37.738281 42.394531 L 39.335938 42.472656 C 39.777344 42.496094 40.117188 42.871094 40.09375 43.3125 C 40.074219 43.738281 39.71875 44.074219 39.296875 44.074219 Z M 39.296875 44.074219 "/>
<path style=" stroke:none;fill-rule:nonzero;fill:rgb(55.294118%,42.352941%,62.352941%);fill-opacity:1;" d="M 39.105469 47.972656 C 39.09375 47.972656 39.082031 47.972656 39.066406 47.972656 L 37.46875 47.894531 C 37.027344 47.875 36.6875 47.5 36.707031 47.058594 C 36.730469 46.617188 37.109375 46.28125 37.546875 46.296875 L 39.144531 46.375 C 39.585938 46.398438 39.925781 46.773438 39.90625 47.214844 C 39.882812 47.640625 39.53125 47.972656 39.105469 47.972656 Z M 39.105469 47.972656 "/>
<path style=" stroke:none;fill-rule:nonzero;fill:rgb(55.294118%,42.352941%,62.352941%);fill-opacity:1;" d="M 38.917969 51.875 C 38.902344 51.875 38.890625 51.875 38.878906 51.875 L 37.28125 51.796875 C 36.839844 51.777344 36.5 51.402344 36.519531 50.960938 C 36.539062 50.519531 36.914062 50.175781 37.355469 50.199219 L 38.953125 50.277344 C 39.398438 50.296875 39.738281 50.671875 39.714844 51.113281 C 39.695312 51.542969 39.339844 51.875 38.917969 51.875 Z M 38.917969 51.875 "/>
<path style=" stroke:none;fill-rule:nonzero;fill:rgb(55.294118%,42.352941%,62.352941%);fill-opacity:1;" d="M 37.964844 54.960938 C 37.941406 54.960938 37.910156 54.960938 37.882812 54.960938 C 37.835938 54.960938 37.785156 54.953125 37.738281 54.945312 L 11.015625 49.949219 C 10.597656 49.867188 10.316406 49.480469 10.371094 49.058594 C 10.507812 47.972656 13.804688 22.484375 13.941406 21.554688 C 14.144531 20.027344 14.394531 19.738281 15.976562 19.242188 C 16.144531 19.175781 16.527344 19.058594 17.492188 18.761719 C 18.207031 18.542969 19.148438 18.253906 20.234375 17.914062 L 24.960938 16.464844 C 25.007812 16.449219 25.058594 16.433594 25.109375 16.417969 C 25.117188 16.414062 25.125 16.414062 25.132812 16.410156 L 25.863281 16.183594 C 25.886719 16.175781 25.910156 16.167969 25.933594 16.164062 L 37.679688 12.558594 C 38.671875 12.238281 38.996094 12.132812 39.148438 12.101562 C 39.257812 12.074219 39.488281 12.019531 39.75 12.035156 C 40.125 11.910156 40.578125 12.085938 40.890625 12.398438 C 41.125 12.582031 42.808594 14.257812 43.484375 14.9375 C 44.824219 15.039062 46.730469 15.179688 46.90625 15.1875 C 46.984375 15.1875 47.074219 15.203125 47.148438 15.226562 C 47.582031 15.375 47.910156 15.664062 48.089844 16.074219 C 48.125 16.148438 48.144531 16.226562 48.152344 16.308594 C 48.21875 16.816406 53.207031 50.570312 53.257812 50.914062 C 53.320312 51.328125 53.046875 51.722656 52.636719 51.8125 L 38.136719 54.941406 C 38.078125 54.953125 38.023438 54.960938 37.964844 54.960938 Z M 12.054688 48.515625 L 37.886719 53.34375 C 37.910156 53.34375 37.9375 53.339844 37.964844 53.339844 L 51.566406 50.40625 C 50.574219 43.691406 47.023438 19.652344 46.605469 16.769531 C 45.960938 16.726562 44.402344 16.609375 43.070312 16.507812 C 42.878906 16.496094 42.699219 16.414062 42.566406 16.277344 C 41.46875 15.179688 40.246094 13.972656 39.898438 13.652344 C 39.875 13.652344 39.847656 13.648438 39.824219 13.644531 C 39.722656 13.625 39.578125 13.640625 39.507812 13.660156 C 39.496094 13.660156 39.488281 13.664062 39.480469 13.664062 C 39.34375 13.703125 38.871094 13.855469 38.160156 14.085938 L 25.933594 17.835938 C 25.765625 17.890625 25.597656 17.941406 25.429688 17.992188 L 20.707031 19.441406 C 19.625 19.78125 18.679688 20.070312 17.960938 20.292969 C 17.261719 20.507812 16.660156 20.691406 16.550781 20.734375 C 16.164062 20.859375 15.730469 20.992188 15.644531 21.066406 C 15.613281 21.132812 15.5625 21.519531 15.527344 21.777344 C 15.402344 22.613281 12.613281 44.1875 12.054688 48.515625 Z M 12.054688 48.515625 "/>
</g>
</svg>
